<?xml version="1.0" standalone="no"?>
<!DOCTYPE svg PUBLIC "-//W3C//DTD SVG 20010904//EN"
 "http://www.w3.org/TR/2001/REC-SVG-20010904/DTD/svg10.dtd">
<svg version="1.0" xmlns="http://www.w3.org/2000/svg"
 width="307.000000pt" height="307.000000pt" viewBox="0 0 307.000000 307.000000"
 preserveAspectRatio="xMidYMid meet">
<metadata>
Created by potrace 1.14, written by Peter Selinger 2001-2017
</metadata>
<g transform="translate(0.000000,307.000000) scale(0.100000,-0.100000)"
fill="#000000" stroke="none">
<path d="M425 3002 c-20 -3 -20 -10 -18 -1095 1 -601 2 -1099 2 -1107 1 -18
20 -45 71 -100 121 -132 234 -240 250 -240 8 0 11 -3 7 -6 -9 -9 175 -154 187
-147 6 3 8 3 4 -2 -8 -8 53 -55 71 -55 6 0 11 -5 11 -11 0 -5 4 -7 10 -4 5 3
10 2 10 -3 0 -10 186 -106 194 -100 2 2 13 -5 24 -15 11 -10 31 -19 44 -21 13
-1 29 -6 36 -10 11 -7 18 15 12 39 -8 29 -7 295 1 295 5 0 27 -18 49 -40 30
-30 48 -40 71 -40 51 0 72 34 72 113 0 9 2 17 6 17 3 0 7 10 7 23 3 41 11 77
18 85 4 4 14 21 22 37 7 17 21 41 31 55 10 13 12 21 6 16 -7 -4 -13 -2 -13 3
0 6 -8 11 -17 11 -20 1 -57 26 -59 40 -1 6 -2 11 -4 13 -5 7 -14 107 -11 139
1 17 18 17 116 2 64 -10 78 -9 81 6 1 8 5 24 7 35 29 132 50 410 35 453 -5 13
-4 22 3 22 6 0 7 4 4 10 -3 5 -8 34 -10 63 -16 211 -105 399 -208 442 -69 29
-175 -5 -321 -103 -39 -26 -76 -49 -81 -52 -19 -9 -170 -125 -173 -132 -2 -5
-8 -8 -13 -8 -5 0 -18 -8 -28 -17 -25 -23 -38 -33 -81 -63 -19 -13 -40 -29
-46 -35 -6 -5 -22 -17 -34 -25 -12 -8 -32 -23 -43 -33 -12 -11 -34 -25 -49
-33 -25 -13 -30 -12 -48 6 -18 18 -21 32 -19 88 l2 67 76 75 c86 84 161 151
161 144 0 -3 11 6 25 20 13 13 41 37 62 53 21 15 47 37 59 48 12 11 54 45 94
75 39 30 84 65 98 77 15 13 30 23 34 23 4 0 14 7 22 16 9 8 42 31 74 50 45 27
66 34 102 33 25 -1 50 -5 55 -8 6 -3 13 -6 18 -7 4 -1 9 -3 12 -4 3 -1 8 -3
13 -4 4 -1 23 -9 42 -18 69 -32 77 -30 115 19 19 25 35 42 35 38 0 -4 6 -3 13
2 9 8 182 10 182 3 0 -1 23 -3 50 -6 28 -2 70 -6 95 -9 25 -2 63 -6 85 -8 22
-1 46 -7 54 -11 10 -7 12 -5 6 3 -6 10 -3 11 13 2 12 -6 25 -11 29 -10 4 1 27
1 50 0 44 -1 49 -7 58 -67 2 -16 7 -42 10 -58 3 -16 7 -34 8 -40 2 -12 -50
-13 -148 -1 -32 4 -98 8 -146 10 -48 1 -92 5 -98 9 -6 4 -11 3 -11 -2 0 -5 -8
-9 -17 -9 -38 0 -43 -4 -43 -31 0 -16 3 -32 7 -36 5 -4 8 -11 8 -14 1 -4 6
-17 13 -28 6 -12 8 -24 5 -28 -3 -3 -1 -6 5 -6 7 0 12 -4 12 -9 0 -5 18 -48
40 -95 22 -47 40 -90 40 -96 0 -5 5 -10 10 -10 6 0 9 -3 8 -7 -1 -9 5 -26 35
-93 70 -157 74 -196 31 -346 -31 -109 -30 -106 -37 -124 -11 -30 -40 -125 -39
-130 0 -3 -3 -9 -8 -15 -8 -10 -21 -60 -26 -100 -1 -11 -3 -20 -4 -20 -3 0
-11 -39 -15 -72 -2 -18 -9 -42 -15 -53 -7 -12 -9 -24 -6 -27 3 -4 2 -11 -3
-17 -5 -6 -11 -27 -14 -46 -3 -19 -12 -57 -21 -85 -9 -27 -16 -52 -16 -55 -2
-17 -14 -57 -19 -65 -3 -5 -6 -12 -7 -15 0 -3 -6 -18 -12 -33 -7 -16 -12 -30
-12 -33 0 -3 -14 -34 -30 -69 -17 -35 -30 -69 -30 -75 0 -5 -4 -10 -8 -10 -5
0 -17 -18 -27 -40 -10 -22 -22 -40 -27 -40 -5 0 -6 -4 -3 -10 3 -5 2 -10 -3
-10 -6 0 -12 -7 -15 -14 -6 -14 10 -13 38 3 6 3 19 7 30 8 11 2 22 8 23 13 2
6 10 10 17 10 22 0 192 104 215 131 3 3 10 8 16 10 41 15 326 296 414 409 19
25 38 50 43 55 4 6 19 24 33 40 13 17 34 45 46 64 l22 34 -2 1071 c-1 589 -2
1074 -2 1079 0 4 -241 6 -535 5 -294 -2 -535 0 -535 4 0 3 -8 4 -17 2 -25 -7
-943 -10 -943 -4 0 5 -121 7 -155 2z"/>
</g>
</svg>
