<?xml version="1.0" standalone="no"?>
<!DOCTYPE svg PUBLIC "-//W3C//DTD SVG 20010904//EN"
 "http://www.w3.org/TR/2001/REC-SVG-20010904/DTD/svg10.dtd">
<svg version="1.0" xmlns="http://www.w3.org/2000/svg"
 width="334.000000pt" height="335.000000pt" viewBox="0 0 334.000000 335.000000"
 preserveAspectRatio="xMidYMid meet">

<g transform="translate(0.000000,335.000000) scale(0.100000,-0.100000)"
fill="#000000" stroke="none">
<path d="M0 1675 l0 -1675 1670 0 1670 0 0 1675 0 1675 -1670 0 -1670 0 0
-1675z m1778 1269 c31 5 40 2 55 -17 15 -19 19 -20 30 -7 16 19 83 21 79 1 -2
-10 6 -12 28 -9 19 3 30 0 30 -7 0 -18 35 -55 52 -55 20 0 40 -24 30 -35 -4
-5 -2 -5 5 -2 6 4 13 1 16 -5 2 -7 8 -10 12 -6 4 4 2 14 -5 23 -8 10 -9 15 -1
15 6 0 11 -4 11 -10 0 -13 64 -42 87 -38 14 2 18 -3 16 -22 -1 -14 1 -20 3
-13 7 15 34 5 34 -12 0 -7 7 -15 15 -19 8 -3 15 -1 15 4 0 19 17 10 30 -15 7
-14 19 -25 27 -25 7 0 13 -4 13 -9 0 -5 14 -14 30 -20 17 -5 30 -15 30 -20 0
-6 7 -8 15 -5 8 4 15 2 15 -4 0 -6 9 -8 20 -5 11 3 20 9 20 14 0 18 16 8 17
-10 1 -11 -5 -21 -14 -23 -12 -2 -10 -9 11 -31 14 -15 26 -23 26 -17 0 6 5 8
10 5 6 -4 7 -11 4 -17 -4 -6 22 -37 56 -69 60 -56 90 -72 90 -49 0 6 5 10 12
10 6 0 3 -9 -7 -20 -18 -19 -18 -22 -2 -37 12 -12 17 -13 17 -4 0 11 23 -7 92
-72 20 -19 48 -27 100 -30 14 -1 24 -4 22 -6 -2 -3 6 -15 18 -28 21 -23 21
-23 2 -45 -16 -18 -16 -20 -3 -15 13 4 16 1 12 -14 -3 -11 -10 -16 -17 -12 -6
4 -19 6 -28 5 -10 -2 -18 3 -18 10 -1 9 -5 7 -14 -4 -7 -10 -16 -15 -20 -11
-4 4 -4 0 0 -10 7 -19 24 -23 24 -6 0 5 5 7 12 3 9 -6 9 -9 0 -12 -15 -5 -16
-82 -2 -82 6 0 10 -6 8 -12 -2 -15 7 -49 29 -100 12 -29 22 -38 49 -42 37 -8
43 -14 54 -61 6 -25 4 -32 -5 -28 -7 2 -16 -5 -20 -16 -3 -12 -11 -21 -17 -21
-6 0 -8 -13 -6 -30 3 -16 1 -30 -4 -30 -11 0 -10 -37 0 -44 5 -3 7 -41 5 -86
-4 -78 -3 -80 27 -110 43 -42 39 -88 -8 -110 -27 -13 -35 -25 -52 -80 -12 -36
-28 -75 -36 -88 -8 -12 -12 -26 -9 -31 2 -5 -2 -12 -11 -15 -9 -4 -14 -13 -10
-21 3 -8 1 -15 -4 -15 -12 0 -13 23 -2 36 15 16 61 196 72 283 20 149 3 366
-40 516 -23 78 -109 240 -155 290 -25 28 -54 66 -65 86 -10 19 -28 39 -39 45
-11 5 -44 32 -73 60 -31 29 -59 49 -68 46 -8 -3 -12 -1 -8 3 9 10 -41 55 -61
55 -7 0 -21 8 -30 18 -23 26 -87 63 -95 55 -3 -3 -16 3 -29 15 -26 24 -198 88
-261 97 -23 4 -57 10 -76 15 -64 16 -382 -13 -413 -38 -11 -9 -70 -26 -93 -27
-6 0 -18 -5 -25 -11 -8 -7 -25 -15 -39 -19 -14 -4 -43 -19 -65 -34 -22 -14
-52 -32 -67 -40 -16 -8 -28 -18 -28 -23 0 -4 -7 -8 -15 -8 -8 0 -27 -12 -42
-28 -16 -15 -45 -39 -65 -52 -21 -14 -43 -35 -49 -47 -7 -13 -18 -23 -26 -23
-7 0 -13 -4 -13 -9 0 -5 -9 -11 -21 -14 -13 -4 -19 -12 -17 -23 2 -10 -7 -28
-19 -40 -15 -15 -20 -29 -16 -40 4 -11 3 -15 -5 -10 -14 9 -52 -32 -52 -58 0
-10 -3 -17 -6 -13 -4 3 -20 -22 -36 -56 -17 -34 -34 -70 -39 -80 -5 -10 -7
-23 -3 -29 4 -6 3 -8 -3 -5 -12 8 -23 -14 -23 -44 0 -10 -5 -19 -12 -19 -6 0
-8 -3 -5 -7 4 -3 2 -12 -4 -19 -6 -8 -9 -21 -5 -29 3 -8 1 -15 -5 -15 -6 0 -7
-4 -4 -10 3 -5 1 -18 -5 -29 -5 -11 -11 -42 -12 -70 -1 -28 -6 -51 -10 -51 -4
0 -8 -9 -8 -20 0 -11 4 -20 9 -20 5 0 12 -7 15 -16 3 -8 2 -12 -4 -9 -13 8 -5
-187 9 -214 7 -12 9 -26 6 -31 -3 -5 -1 -11 5 -15 6 -4 8 -10 5 -15 -7 -11 24
-103 39 -112 6 -4 7 -8 2 -8 -5 0 -2 -7 5 -16 7 -9 13 -26 14 -38 0 -11 5 -20
12 -19 6 1 10 -8 8 -23 -1 -15 5 -33 17 -44 11 -10 17 -23 14 -28 -3 -6 7 -16
23 -23 23 -10 27 -16 19 -26 -7 -9 -7 -13 1 -13 6 0 13 -11 17 -25 3 -14 9
-25 13 -25 4 0 21 -25 36 -55 16 -30 37 -57 46 -60 9 -3 21 -17 27 -30 6 -14
18 -25 27 -25 17 0 55 -35 55 -50 0 -5 7 -10 15 -10 8 0 15 -7 15 -16 0 -9 14
-21 30 -27 17 -6 30 -15 30 -19 0 -4 7 -8 16 -8 8 0 12 -4 9 -10 -3 -5 1 -10
9 -10 9 0 16 -4 16 -8 0 -4 16 -14 35 -21 19 -7 35 -17 35 -22 0 -5 9 -9 20
-9 11 0 20 -4 20 -8 0 -4 21 -14 47 -21 25 -8 59 -21 75 -29 88 -43 443 -66
585 -36 159 33 309 94 417 171 53 37 236 219 236 234 0 5 5 9 11 9 16 0 0 -40
-34 -82 -17 -21 -36 -38 -44 -38 -7 0 -13 -6 -13 -13 0 -8 -11 -20 -25 -27
-14 -7 -25 -20 -25 -27 0 -7 -7 -16 -17 -20 -9 -3 -36 -25 -60 -48 -23 -23
-65 -52 -93 -65 -27 -13 -47 -27 -44 -31 8 -13 -15 -49 -31 -49 -7 0 -15 5
-17 11 -2 6 -14 2 -30 -10 -14 -12 -40 -24 -57 -27 -17 -4 -31 -10 -31 -14 0
-7 -37 -21 -49 -19 -2 0 -7 -5 -12 -13 -5 -7 -18 -13 -29 -13 -11 0 -25 -7
-30 -15 -5 -8 -12 -11 -16 -8 -4 4 -16 2 -28 -4 -11 -6 -32 -12 -45 -14 -14
-1 -34 -7 -45 -12 -43 -19 -128 -41 -142 -35 -8 3 -21 0 -29 -7 -8 -6 -19 -9
-25 -5 -5 3 -10 -1 -10 -10 0 -12 -6 -14 -26 -9 -18 5 -25 3 -20 -4 3 -6 2
-13 -4 -17 -6 -3 -13 0 -16 9 -3 8 -13 15 -22 15 -9 0 -30 2 -47 5 -16 3 -35
0 -42 -5 -7 -6 -21 -8 -32 -4 -29 9 -60 14 -121 21 -71 8 -82 10 -100 17 -8 4
-35 8 -58 11 -24 2 -46 7 -49 10 -3 2 -16 1 -29 -4 -24 -9 -45 4 -22 13 7 3 3
6 -9 6 -13 1 -23 6 -23 11 0 6 -17 10 -40 8 -24 -1 -45 4 -53 12 -10 10 -9 12
6 7 19 -7 21 0 8 22 -5 7 -14 10 -20 7 -7 -5 -10 -2 -9 6 2 7 -3 12 -9 10 -7
-1 -13 3 -13 9 0 8 -4 8 -14 0 -10 -9 -15 -8 -19 4 -4 9 -13 12 -23 8 -12 -4
-15 -3 -10 5 4 7 1 12 -9 12 -10 0 -13 -5 -9 -12 4 -7 4 -10 0 -6 -4 3 -8 10
-9 15 0 4 -7 14 -14 21 -7 8 -11 17 -9 21 3 4 -4 7 -14 7 -10 0 -17 -3 -15 -6
2 -3 -4 -14 -12 -25 -14 -19 -15 -18 -9 11 8 35 -3 48 -47 59 -17 5 -27 14
-27 25 0 10 -13 32 -30 48 -16 17 -30 33 -30 37 0 12 -28 35 -43 35 -7 0 -30
18 -51 40 -20 22 -32 40 -26 40 5 0 10 4 10 9 0 5 -7 8 -17 7 -10 -1 -19 10
-25 32 -9 33 -22 42 -31 20 -3 -7 -6 -1 -6 14 -1 31 -41 75 -52 57 -5 -8 -8
-8 -13 0 -6 10 6 15 26 12 12 -2 9 13 -8 37 -8 12 -13 22 -9 22 3 0 -2 11 -11
25 -9 14 -24 25 -33 25 -12 0 -13 2 -3 9 10 6 9 11 -4 22 -15 12 -17 12 -9 0
5 -9 4 -12 -2 -8 -5 3 -9 19 -8 35 1 24 -2 28 -18 24 -19 -5 -19 -4 -2 22 16
24 14 31 -9 27 -5 -1 -5 4 0 11 6 7 9 29 8 48 -4 61 -5 66 -11 53 -9 -24 -18
-13 -20 23 -1 19 -9 46 -17 59 -20 31 -20 35 2 36 16 1 16 2 -1 6 -14 4 -16
11 -11 39 4 23 1 42 -9 57 -13 20 -13 24 0 36 11 10 14 26 10 52 -3 22 -2 39
2 39 4 0 7 9 7 19 0 13 -4 17 -11 11 -7 -5 -10 14 -10 61 0 38 2 64 3 59 2 -6
8 -7 13 -4 6 4 6 11 -1 19 -7 8 -8 20 -4 27 13 20 15 50 4 43 -15 -9 -12 7 5
29 8 11 15 28 15 38 0 10 4 18 10 18 5 0 8 13 6 29 -2 22 2 32 20 42 13 7 24
18 24 25 0 7 3 20 7 29 5 14 2 16 -18 10 -19 -5 -21 -4 -9 4 12 9 13 12 1 20
-9 6 -10 11 -2 15 6 4 9 11 7 15 -3 4 10 7 27 7 28 -1 32 3 35 26 2 15 12 34
22 41 20 14 45 64 41 84 -1 6 10 20 24 31 14 11 25 23 25 26 0 7 8 16 80 96
28 30 48 60 46 67 -6 15 21 25 28 10 3 -8 13 -3 28 13 13 14 36 31 51 38 15 7
25 17 22 22 -3 6 1 10 9 10 8 0 20 8 25 18 6 9 11 13 11 9 0 -8 13 1 51 36 10
9 25 17 33 17 7 0 19 6 25 14 7 8 26 18 42 21 17 4 33 13 35 20 3 7 20 16 39
19 18 4 35 10 37 14 6 16 87 49 92 38 3 -7 8 -6 15 4 5 8 13 11 17 8 4 -4 15
-3 25 2 12 7 19 6 22 -3 3 -7 6 -5 6 5 1 11 6 15 15 12 8 -3 17 0 21 5 3 6 10
9 15 6 5 -3 11 -1 15 5 3 5 19 10 35 10 16 0 32 -5 35 -10 4 -6 10 -8 15 -5 5
3 25 6 45 7 20 1 38 5 41 10 3 4 14 3 25 -3 13 -6 25 -7 32 -1 7 5 21 6 31 3
18 -7 27 -1 81 48 6 5 15 5 23 -1 7 -6 29 -8 50 -4z m1082 -128 c0 -3 -4 -8
-10 -11 -5 -3 -10 -1 -10 4 0 6 5 11 10 11 6 0 10 -2 10 -4z m-340 -16 c0 -5
-7 -7 -15 -4 -8 4 -15 8 -15 10 0 2 7 4 15 4 8 0 15 -4 15 -10z m-80 -30 c0
-5 -2 -10 -4 -10 -3 0 -8 5 -11 10 -3 6 -1 10 4 10 6 0 11 -4 11 -10z m-150
-10 c0 -5 -4 -10 -10 -10 -5 0 -10 5 -10 10 0 6 5 10 10 10 6 0 10 -4 10 -10z
m-420 -49 c0 -6 -4 -12 -8 -15 -5 -3 -9 1 -9 9 0 8 4 15 9 15 4 0 8 -4 8 -9z
m640 -22 c0 -5 -4 -9 -10 -9 -5 0 -10 7 -10 16 0 8 5 12 10 9 6 -3 10 -10 10
-16z m120 -25 c0 -14 -4 -23 -9 -20 -5 3 -7 15 -4 26 7 28 13 25 13 -6z m-70
-46 c0 -11 -12 -10 -30 2 -12 7 -10 9 8 7 12 0 22 -5 22 -9z m90 -8 c0 -6 -5
-19 -12 -29 -11 -18 -13 -18 -36 -3 -20 13 -25 13 -32 1 -7 -11 -12 -11 -21
-2 -10 10 -7 14 12 21 13 5 31 12 39 15 25 9 50 8 50 -3z m125 -119 c3 -5 1
-12 -5 -16 -5 -3 -10 1 -10 9 0 18 6 21 15 7z m-369 -38 c-10 -10 -19 5 -10
18 6 11 8 11 12 0 2 -7 1 -15 -2 -18z m542 -31 c2 -7 -3 -12 -12 -12 -9 0 -16
7 -16 16 0 17 22 14 28 -4z m-155 1 c-7 -2 -19 -2 -25 0 -7 3 -2 5 12 5 14 0
19 -2 13 -5z m-1873 -197 c0 -2 -8 -10 -17 -17 -16 -13 -17 -12 -4 4 13 16 21
21 21 13z m2146 -33 c-10 -10 -19 5 -10 18 6 11 8 11 12 0 2 -7 1 -15 -2 -18z
m7 -77 c21 -16 14 -39 -19 -56 -21 -12 -27 -11 -49 10 -16 15 -25 19 -25 10 0
-7 -2 -11 -5 -8 -3 3 0 17 6 32 9 20 19 26 43 26 17 0 39 -7 49 -14z m-2830
-101 c-3 -9 -8 -14 -10 -11 -3 3 -2 9 2 15 9 16 15 13 8 -4z m2887 -1 c0 -8
-4 -12 -10 -9 -5 3 -10 10 -10 16 0 5 5 9 10 9 6 0 10 -7 10 -16z m-2793 -20
c-3 -3 -12 -4 -19 -1 -8 3 -5 6 6 6 11 1 17 -2 13 -5z m-32 -114 c3 -5 1 -10
-4 -10 -6 0 -11 5 -11 10 0 6 2 10 4 10 3 0 8 -4 11 -10z m-5 -400 c0 -5 -4
-10 -10 -10 -5 0 -10 5 -10 10 0 6 5 10 10 10 6 0 10 -4 10 -10z m2704 -176
c5 -14 4 -15 -9 -4 -17 14 -19 20 -6 20 5 0 12 -7 15 -16z m30 -49 c-7 -17
-20 -20 -29 -6 -3 5 3 12 12 14 10 3 19 5 20 6 1 0 0 -6 -3 -14z m-64 -30 c0
-2 -7 -8 -15 -15 -12 -10 -15 -10 -15 2 0 8 7 15 15 15 8 0 15 -1 15 -2z m70
-27 c0 -6 -6 -5 -15 2 -8 7 -15 14 -15 16 0 2 7 1 15 -2 8 -4 15 -11 15 -16z
m-170 -132 c0 -2 -7 -7 -16 -10 -8 -3 -12 -2 -9 4 6 10 25 14 25 6z m-2540
-16 c0 -5 -2 -10 -4 -10 -3 0 -8 5 -11 10 -3 6 -1 10 4 10 6 0 11 -4 11 -10z
m120 -32 c0 -6 -6 -5 -15 2 -8 7 -15 14 -15 16 0 2 7 1 15 -2 8 -4 15 -11 15
-16z m2350 -48 c0 -5 -5 -10 -11 -10 -5 0 -7 5 -4 10 3 6 8 10 11 10 2 0 4 -4
4 -10z m-2403 -62 c-3 -8 -6 -5 -6 6 -1 11 2 17 5 13 3 -3 4 -12 1 -19z m568
-448 c-5 -17 -2 -20 23 -20 27 0 51 -24 37 -38 -2 -3 -7 3 -11 12 -3 9 -11 16
-17 16 -6 0 -8 -3 -4 -6 3 -4 -1 -20 -9 -36 -9 -16 -13 -35 -11 -42 3 -6 -4
-12 -14 -12 -11 0 -19 6 -19 13 0 7 -11 13 -25 13 -14 0 -25 6 -26 13 0 6 -4
3 -8 -7 -7 -19 -8 -19 -28 1 -12 12 -24 19 -27 16 -2 -3 -10 -2 -17 3 -9 5 -5
10 12 17 13 6 28 9 32 8 13 -2 48 20 43 28 -3 4 9 5 27 3 29 -5 31 -3 18 12
-12 14 -12 16 3 10 9 -3 16 -1 16 5 0 6 3 11 6 11 3 0 2 -9 -1 -20z m145 -87
c0 -8 -5 -13 -12 -11 -18 6 -21 25 -3 25 8 0 15 -7 15 -14z m-105 -23 c3 -5 1
-10 -4 -10 -6 0 -11 5 -11 10 0 6 2 10 4 10 3 0 8 -4 11 -10z m160 -20 c3 -5
-1 -10 -9 -10 -9 0 -16 5 -16 10 0 6 4 10 9 10 6 0 13 -4 16 -10z m590 -51
c11 -16 1 -19 -13 -3 -7 8 -8 14 -3 14 5 0 13 -5 16 -11z m-671 -44 c-4 -8
-10 -12 -15 -9 -14 8 -10 24 6 24 9 0 12 -6 9 -15z m700 -47 c-9 -30 -10 -32
-29 -25 -8 4 -15 16 -15 27 0 15 7 20 26 20 22 0 24 -3 18 -22z"/>
</g>
</svg>
